<svg xmlns="http://www.w3.org/2000/svg" version="1.1" xmlns:xlink="http://www.w3.org/1999/xlink" xmlns:svgjs="http://svgjs.dev/svgjs" width="1000" height="623" viewBox="0 0 1000 623"><g transform="matrix(1,0,0,1,-0.6060606060606233,0.2522267206477409)"><svg viewBox="0 0 396 247" data-background-color="#ffffff" preserveAspectRatio="xMidYMid meet" height="623" width="1000" xmlns="http://www.w3.org/2000/svg" xmlns:xlink="http://www.w3.org/1999/xlink"><g id="tight-bounds" transform="matrix(1,0,0,1,0.2400000000000091,-0.09999999999999432)"><svg viewBox="0 0 395.52 247.2" height="247.2" width="395.52"><g><svg></svg></g><g><svg viewBox="0 0 395.52 247.2" height="247.2" width="395.52"><g transform="matrix(1,0,0,1,75.54432,88.11656279553902)"><svg viewBox="0 0 244.43135999999998 70.96687440892194" height="70.96687440892194" width="244.43135999999998"><g><svg viewBox="0 0 244.43135999999998 70.96687440892194" height="70.96687440892194" width="244.43135999999998"><g><svg viewBox="0 0 244.43135999999998 70.96687440892194" height="70.96687440892194" width="244.43135999999998"><g><svg viewBox="0 0 244.43135999999998 70.96687440892194" height="70.96687440892194" width="244.43135999999998"><g><svg viewBox="0 0 244.43135999999998 70.96687440892194" height="70.96687440892194" width="244.43135999999998"><g><svg viewBox="0 0 244.43135999999998 70.96687440892194" height="70.96687440892194" width="244.43135999999998"><g transform="matrix(1,0,0,1,0,0)"><svg width="244.43135999999998" viewBox="4.7 -38.35 134.49 39.050000000000004" height="70.96687440892194" data-palette-color="#ffffff"><path d="M23.85-36L33.6-36 32.75-8.75 33.9-8.75 42.6-36 52.4-36 40.05 0 25.05 0 26.4-23.05 19.7 0 4.7 0 5.05-36 14.85-36 13.95-8.75 15.1-8.75 23.85-36ZM61.65-6.4L61.65-6.4Q62.8-6.4 63.7-6.9L63.7-6.9 63.45-1.25Q61.1 0.7 58.1 0.7L58.1 0.7Q53.55 0.7 52.2-1.4L52.2-1.4Q51.3-2.8 51.3-4.38 51.3-5.95 51.5-7.15L51.5-7.15 54.5-24.05 63-24.05 60.2-8.3Q60.15-8 60.15-7.75L60.15-7.75Q60.15-6.4 61.65-6.4ZM55.5-32.2L55.5-32.2Q55.5-35.4 56.92-36.88 58.35-38.35 61.35-38.35L61.35-38.35Q65.55-38.35 65.55-34.65L65.55-34.65Q65.55-31.5 64.12-30.05 62.7-28.6 59.65-28.6L59.65-28.6Q55.5-28.6 55.5-32.2ZM76.05-7.7L76.05-7.7Q76.05-6.4 77.37-6.4 78.7-6.4 79.6-6.9L79.6-6.9 79.35-1.25Q76.95 0.7 73.95 0.7L73.95 0.7Q69.4 0.7 68.05-1.4L68.05-1.4Q67.2-2.75 67.2-4.35 67.2-5.95 67.4-7.15L67.4-7.15 72.85-37.95 81.35-37.95 76.1-8.3Q76.05-8 76.05-7.7ZM91.99-7.7L91.99-7.7Q91.99-6.4 93.32-6.4 94.64-6.4 95.54-6.9L95.54-6.9 95.29-1.25Q92.89 0.7 89.89 0.7L89.89 0.7Q85.34 0.7 83.99-1.4L83.99-1.4Q83.14-2.75 83.14-4.35 83.14-5.95 83.34-7.15L83.34-7.15 88.79-37.95 97.29-37.95 92.04-8.3Q91.99-8 91.99-7.7ZM109.19-6.4L109.19-6.4Q110.34-6.4 111.24-6.9L111.24-6.9 110.99-1.25Q108.64 0.7 105.64 0.7L105.64 0.7Q101.09 0.7 99.74-1.4L99.74-1.4Q98.84-2.8 98.84-4.38 98.84-5.95 99.04-7.15L99.04-7.15 102.04-24.05 110.54-24.05 107.74-8.3Q107.69-8 107.69-7.75L107.69-7.75Q107.69-6.4 109.19-6.4ZM103.04-32.2L103.04-32.2Q103.04-35.4 104.47-36.88 105.89-38.35 108.89-38.35L108.89-38.35Q113.09-38.35 113.09-34.65L113.09-34.65Q113.09-31.5 111.67-30.05 110.24-28.6 107.19-28.6L107.19-28.6Q103.04-28.6 103.04-32.2ZM124.39 0.7L124.39 0.7Q113.99 0.7 113.99-6.5L113.99-6.5Q113.99-7.5 114.19-8.65L114.19-8.65 115.24-14.85Q116.09-19.65 119.66-22.23 123.24-24.8 129.14-24.8L129.14-24.8Q139.19-24.8 139.19-17.2L139.19-17.2Q139.19-16.1 138.99-14.8L138.99-14.8 138.39-11.25 123.14-11.25 122.94-10.1Q122.84-9.5 122.84-9L122.84-9Q122.84-6.25 126.09-6.25L126.09-6.25Q127.29-6.25 128.14-7 128.99-7.75 129.14-8.75L129.14-8.75 137.44-8.65Q135.79 0.7 124.39 0.7ZM123.64-14.3L130.39-14.3Q130.59-15.15 130.59-15.88 130.59-16.6 129.94-17.35 129.29-18.1 127.86-18.1 126.44-18.1 125.26-17.15 124.09-16.2 123.64-14.3L123.64-14.3Z" opacity="1" transform="matrix(1,0,0,1,0,0)" fill="#ffffff" class="undefined-text-0" data-fill-palette-color="primary" id="text-0"></path></svg></g></svg></g></svg></g></svg></g></svg></g></svg></g></svg></g><path d="M189.054 82.117L189.054 25.372 385.51 25.372 385.51 221.828 189.054 221.828 189.054 165.083 195.454 165.083 195.454 215.428 379.11 215.428 379.11 31.772 195.454 31.772 195.454 82.117Z" fill="#ffffff" stroke="transparent" data-fill-palette-color="primary"></path></svg></g><defs></defs></svg><rect width="395.52" height="247.2" fill="none" stroke="none" visibility="hidden"></rect></g></svg></g></svg>